<?xml version="1.0" encoding="UTF-8" standalone="no"?>
<!-- Created with Inkscape (http://www.inkscape.org/) -->

<svg
   xmlns:dc="http://purl.org/dc/elements/1.1/"
   xmlns:cc="http://creativecommons.org/ns#"
   xmlns:rdf="http://www.w3.org/1999/02/22-rdf-syntax-ns#"
   xmlns:svg="http://www.w3.org/2000/svg"
   xmlns="http://www.w3.org/2000/svg"
   xmlns:sodipodi="http://sodipodi.sourceforge.net/DTD/sodipodi-0.dtd"
   xmlns:inkscape="http://www.inkscape.org/namespaces/inkscape"
   width="46.342354mm"
   height="31.777885mm"
   viewBox="0 0 46.342354 31.777885"
   version="1.1"
   id="svg8"
   inkscape:version="0.92.3 (2405546, 2018-03-11)"
   sodipodi:docname="coffee_cup_33.svg">
  <defs
     id="defs2" />
  <sodipodi:namedview
     id="base"
     pagecolor="#ffffff"
     bordercolor="#666666"
     borderopacity="1.0"
     inkscape:pageopacity="0.0"
     inkscape:pageshadow="2"
     inkscape:zoom="7.919596"
     inkscape:cx="51.638477"
     inkscape:cy="42.229191"
     inkscape:document-units="mm"
     inkscape:current-layer="layer1"
     showgrid="false"
     inkscape:window-width="3360"
     inkscape:window-height="1780"
     inkscape:window-x="4468"
     inkscape:window-y="585"
     inkscape:window-maximized="1"
     fit-margin-top="0"
     fit-margin-left="0"
     fit-margin-right="0"
     fit-margin-bottom="0"
     showguides="true"
     inkscape:guide-bbox="true">
    <sodipodi:guide
       position="41.226324,15.267772"
       orientation="0,1"
       id="guide826"
       inkscape:locked="false" />
    <sodipodi:guide
       position="-1.837478,22.049736"
       orientation="0,1"
       id="guide828"
       inkscape:locked="false" />
  </sodipodi:namedview>
  <metadata
     id="metadata5">
    <rdf:RDF>
      <cc:Work
         rdf:about="">
        <dc:format>image/svg+xml</dc:format>
        <dc:type
           rdf:resource="http://purl.org/dc/dcmitype/StillImage" />
        <dc:title></dc:title>
      </cc:Work>
    </rdf:RDF>
  </metadata>
  <g
     inkscape:label="Ebene 1"
     inkscape:groupmode="layer"
     id="layer1"
     transform="translate(-4.9303412,-186.70033)">
    <path
       style="color:#000000;font-style:normal;font-variant:normal;font-weight:normal;font-stretch:normal;font-size:medium;line-height:normal;font-family:sans-serif;font-variant-ligatures:normal;font-variant-position:normal;font-variant-caps:normal;font-variant-numeric:normal;font-variant-alternates:normal;font-feature-settings:normal;text-indent:0;text-align:start;text-decoration:none;text-decoration-line:none;text-decoration-style:solid;text-decoration-color:#000000;letter-spacing:normal;word-spacing:normal;text-transform:none;writing-mode:lr-tb;direction:ltr;text-orientation:mixed;dominant-baseline:auto;baseline-shift:baseline;text-anchor:start;white-space:normal;shape-padding:0;clip-rule:nonzero;display:inline;overflow:visible;visibility:visible;opacity:1;isolation:auto;mix-blend-mode:normal;color-interpolation:sRGB;color-interpolation-filters:linearRGB;solid-color:#000000;solid-opacity:1;vector-effect:none;fill:#010000;fill-opacity:1;fill-rule:nonzero;stroke:none;stroke-width:2.5;stroke-linecap:butt;stroke-linejoin:miter;stroke-miterlimit:4;stroke-dasharray:none;stroke-dashoffset:0;stroke-opacity:1;color-rendering:auto;image-rendering:auto;shape-rendering:auto;text-rendering:auto;enable-background:accumulate"
       d="m 42.816406,186.70117 -29.99414,0.1875 -0.138672,0.0312 c 0.07759,-0.0183 -0.500662,-0.16473 -1.421875,0.11719 -0.460607,0.14096 -1.007114,0.55536 -1.2656252,1.0918 -0.2585112,0.53644 -0.3115002,1.1039 -0.2792969,1.77734 l -0.039063,19.17969 0.00195,0.0312 c 0.03261,0.677 0.2962032,1.16348 0.6171871,1.65429 0.320984,0.49082 0.732344,0.96339 1.210937,1.40235 0.957188,0.87791 2.16073,1.6645 3.595704,1.78125 l 0.05273,0.004 23.617188,-0.0137 -0.07617,-0.004 c 1.528296,0.0909 2.652519,-0.84879 3.560546,-1.85547 0.908028,-1.00669 1.634515,-2.1448 1.705079,-3.47852 v -0.0176 l 0.193359,-7.71679 c 3.040625,-0.6716 5.007534,-1.61906 6.005859,-2.9668 1.124433,-1.51799 1.042309,-3.17768 1.107422,-4.28711 l 0.0039,-0.043 -0.002,-0.0449 c -0.02317,-1.81701 -0.879049,-3.49143 -2.351562,-4.64844 -1.472513,-1.157 -3.499177,-1.86328 -6.023438,-2.17187 z m -1.300781,2.50781 0.166016,10.69532 v 0.0195 l -0.216797,8.55273 c -0.01311,0.24772 -0.434242,1.23491 -1.064453,1.9336 -0.630212,0.69868 1.671737,-0.526 1.55232,-0.5331 l -0.27097,-13.44855 -29.924235,0 c -0.522139,-0.0453 -0.0197,13.51999 -0.696444,12.8993 -0.339612,-0.31149 1.51029,0.35088 1.329562,0.0745 -0.17901,-0.27368 -0.217096,-0.50047 -0.21289,-0.4023 l 0.03906,-19.18164 -0.002,-0.0312 c -0.01356,-0.28346 0.0069,-0.29703 0.02148,-0.37305 0.09715,0.0354 0.309679,0.10722 1.021484,-0.0605 l -0.279296,0.0332 z m 2.503906,0.30274 c 1.43156,0.32561 2.626514,0.76512 3.355469,1.33789 0.965882,0.75893 1.374263,1.59099 1.392578,2.69727 -0.06987,1.23741 -0.06411,2.12707 -0.615234,2.87109 -0.457502,0.61763 -1.7715,1.30182 -3.998047,1.87695 z"
       id="path821"
       inkscape:connector-curvature="0"
       sodipodi:nodetypes="cccssccccccccccccccccccccccccccccccccccccccccscc" />
    <path
       style="fill:#000000;fill-opacity:1;stroke:none;stroke-width:3.1393888;stroke-linecap:butt;stroke-linejoin:miter;stroke-miterlimit:4;stroke-dasharray:none;stroke-opacity:1"
       d="m 4.949763,215.75011 45.18476,-0.0114 c 0.124939,1.93428 -0.369184,2.55517 -1.069078,2.73951 l -43.1437602,-0.0394 c -1.0587639,-0.70321 -1.021026,-1.69463 -0.9719218,-2.68904 z"
       id="path824"
       inkscape:connector-curvature="0"
       sodipodi:nodetypes="ccccc" />
  </g>
</svg>
